<svg xmlns="http://www.w3.org/2000/svg" viewBox="0 0 96 96" fill="none">
  <g stroke="#0F2E46" stroke-width="2" stroke-linecap="round" stroke-linejoin="round" fill="none">
    <path d="M36 78 L36 70 C 26 64, 20 54, 20 42 C 20 26, 32 14, 48 14 C 64 14, 76 26, 76 42 C 76 54, 70 64, 60 70 L 60 78" />
    <path d="M38 86 L58 86" />
    <path d="M48 62 L48 44" />
    <path d="M48 48 C 44 44, 38 44, 35 40 C 40 38, 46 40, 48 44" />
    <path d="M48 52 C 52 48, 58 48, 61 44 C 56 42, 50 44, 48 48" />
  </g>
</svg>
